<?xml version="1.0" encoding="utf-8"?>
<!-- Generator: Adobe Illustrator 24.0.0, SVG Export Plug-In . SVG Version: 6.00 Build 0)  -->
<svg version="1.1" id="Layer_1" xmlns="http://www.w3.org/2000/svg" xmlns:xlink="http://www.w3.org/1999/xlink" width="92" height="32"
	 viewBox="0 0 283.46 283.46" style="enable-background:new 0 0 283.46 283.46;" xml:space="preserve">
<style type="text/css">
	.st0{fill:#653998;}
</style>
<g>
	<g>
		<path class="st0" d="M203.28,44.04c-41.69,9.89-38.7,39.43-48.98,45.19c-7.91,0.28-15.92,1.8-23.74,4.71
			c-7.83,2.91-14.89,6.98-21.06,11.94c-11.55,2.36-28.58-21.97-66.61-2.23c-34.1,17.71-38.28,74.01,0.17,92.44
			c11.81,2.94,11.29-7.58,17.52-1.43c9.03,8.9,12.92,0.88,16.4,0.11c6.45-1.43,7,2.57,12.2,3.58c16.94,34.26,57.4,50.86,94.02,37.24
			c36.62-13.61,56.41-52.6,46.87-89.61c3.28-4.17,1.08-7.55,6.9-10.68c3.14-1.69,11.33,1.84,12.35-10.8
			c0.71-8.73,7.18-0.42,14.21-10.36C280.6,75.08,240.67,35.18,203.28,44.04z M72.41,166.33c-9.24,3.43-19.52-1.27-22.95-10.51
			c-3.43-9.24,1.27-19.51,10.51-22.95c9.24-3.43,19.51,1.27,22.95,10.51C86.35,152.63,81.65,162.9,72.41,166.33z M121.52,184.9
			c-4.62,1.72-9.76-0.64-11.48-5.26c-1.72-4.62,0.64-9.75,5.26-11.47c4.62-1.72,9.76,0.64,11.47,5.25
			C128.49,178.04,126.14,183.18,121.52,184.9z M182.88,205.25l-19.24,7.15c-1.33,0.49-2.81-0.18-3.3-1.51
			c-0.49-1.33,0.18-2.81,1.51-3.3l19.24-7.15c1.33-0.49,2.81,0.18,3.3,1.51C184.88,203.28,184.2,204.76,182.88,205.25z
			 M180.01,179.66c1.2,10.82-6.89,15.56-11.22,17.17c-4.33,1.61-13.56,3.31-19.71-5.67c-6.16-8.98-8.21-35.35,2.92-39.48
			C163.15,147.53,178.81,168.84,180.01,179.66z M196.8,156.91c-4.62,1.72-9.76-0.64-11.48-5.26c-1.72-4.62,0.64-9.75,5.26-11.47
			c4.62-1.72,9.76,0.64,11.47,5.25C203.78,150.06,201.43,155.2,196.8,156.91z M221.87,110.78c-9.24,3.43-19.51-1.27-22.95-10.51
			c-3.43-9.24,1.27-19.51,10.51-22.95c9.24-3.43,19.51,1.27,22.95,10.51S231.11,107.35,221.87,110.78z"/>
	</g>
</g>
</svg>
